<svg width="82" height="82" viewBox="0 0 82 82" fill="none" xmlns="http://www.w3.org/2000/svg">
<ellipse cx="21" cy="57.5294" rx="20" ry="23.5294" fill="white"/>
<ellipse cx="61" cy="57.5294" rx="20" ry="23.5294" fill="white"/>
<circle cx="21" cy="57.5294" r="9.41176" fill="#33A66D"/>
<circle cx="61" cy="57.5294" r="9.41176" fill="#33A66D"/>
<path d="M6.7 2.68C7.34 2.68 7.84 2.86 8.2 3.22C8.57333 3.56667 8.76 4.06 8.76 4.7V4.88H11.56C12.0533 4.88 12.4267 5.03333 12.68 5.34C12.9333 5.64667 13.06 6.01333 13.06 6.44C13.06 6.86667 12.9267 7.23333 12.66 7.54C12.4067 7.84667 12.04 8 11.56 8H11.52C11.6267 8.26667 11.7133 8.54667 11.78 8.84C11.8467 9.12 11.88 9.43333 11.88 9.78V16C11.88 16.88 11.7467 17.6467 11.48 18.3C11.2133 18.94 10.8467 19.4733 10.38 19.9C9.92667 20.3133 9.38 20.62 8.74 20.82C8.11333 21.0333 7.43333 21.14 6.7 21.14C5.96667 21.14 5.28667 21.0333 4.66 20.82C4.03333 20.62 3.48667 20.3133 3.02 19.9C2.56667 19.4733 2.20667 18.94 1.94 18.3C1.67333 17.6467 1.54 16.88 1.54 16V9.78C1.54 9.12667 1.65333 8.53333 1.88 8C1.4 8 1.02667 7.84667 0.76 7.54C0.506667 7.23333 0.38 6.86667 0.38 6.44C0.38 6.01333 0.5 5.64667 0.74 5.34C0.993333 5.03333 1.36667 4.88 1.86 4.88H4.64V4.7C4.64 4.06 4.82 3.56667 5.18 3.22C5.55333 2.86 6.06 2.68 6.7 2.68ZM14.28 4.68C14.28 4.04 14.48 3.56 14.88 3.24C15.28 2.90667 15.74 2.74 16.26 2.74C16.5133 2.74 16.76 2.78667 17 2.88C17.24 2.96 17.4467 3.08 17.62 3.24C17.8067 3.4 17.9533 3.6 18.06 3.84C18.18 4.08 18.24 4.36 18.24 4.68V9.74H18.9C19.2067 9.74 19.46 9.79333 19.66 9.9C19.86 10.0067 20.02 10.1467 20.14 10.32C20.26 10.48 20.3467 10.6667 20.4 10.88C20.4533 11.08 20.48 11.28 20.48 11.48C20.48 11.68 20.4533 11.8867 20.4 12.1C20.3467 12.3 20.26 12.4867 20.14 12.66C20.02 12.82 19.8533 12.9533 19.64 13.06C19.44 13.1667 19.1933 13.22 18.9 13.22H18.24V21.52H14.28V4.68ZM6.7 17.9C7.08667 17.9 7.42667 17.7533 7.72 17.46C8.01333 17.1533 8.16 16.68 8.16 16.04V9.62C8.16 8.96667 8.01333 8.50667 7.72 8.24C7.44 7.97333 7.1 7.84 6.7 7.84C6.31333 7.84 5.97333 7.97333 5.68 8.24C5.4 8.50667 5.26 8.96667 5.26 9.62V16.04C5.26 16.68 5.4 17.1533 5.68 17.46C5.97333 17.7533 6.31333 17.9 6.7 17.9ZM34.48 6.48C34.48 6.37333 34.4533 6.26667 34.4 6.16C34.3467 6.05333 34.22 6 34.02 6H23.26C22.8333 6 22.5 5.85333 22.26 5.56C22.02 5.26667 21.9 4.93333 21.9 4.56C21.9 4.21333 22.02 3.89333 22.26 3.6C22.5 3.30667 22.8333 3.16 23.26 3.16H35.5C36.1133 3.16 36.62 3.22667 37.02 3.36C37.42 3.49333 37.74 3.68667 37.98 3.94C38.22 4.18 38.3867 4.47333 38.48 4.82C38.5867 5.16667 38.64 5.54667 38.64 5.96V9.62H26.56C26.2 9.62 26.02 9.76 26.02 10.04V10.16C26.02 10.32 26.06 10.4267 26.14 10.48C26.2333 10.5333 26.3733 10.56 26.56 10.56H37.8C38.04 10.56 38.2467 10.6067 38.42 10.7C38.5933 10.78 38.7333 10.8867 38.84 11.02C38.96 11.14 39.04 11.2867 39.08 11.46C39.1333 11.62 39.16 11.78 39.16 11.94C39.16 12.2733 39.0533 12.5867 38.84 12.88C38.6267 13.16 38.28 13.3 37.8 13.3H25.14C23.9667 13.3 23.1 13.0333 22.54 12.5C21.98 11.9533 21.7 11.2 21.7 10.24V10C21.7 9.04 21.98 8.28667 22.54 7.74C23.1 7.19333 23.9667 6.92 25.14 6.92H34.48V6.48ZM32.44 17.5V21.62H28.36V17.5H22.72C22.12 17.5 21.6867 17.3333 21.42 17C21.1667 16.6667 21.04 16.2933 21.04 15.88C21.04 15.68 21.0667 15.4867 21.12 15.3C21.1867 15.1 21.2867 14.92 21.42 14.76C21.5533 14.6 21.7267 14.4733 21.94 14.38C22.1533 14.2867 22.4133 14.24 22.72 14.24H38.08C38.3867 14.24 38.6467 14.2867 38.86 14.38C39.0733 14.4733 39.2467 14.6 39.38 14.76C39.5133 14.92 39.6067 15.1 39.66 15.3C39.7267 15.4867 39.76 15.68 39.76 15.88C39.76 16.2933 39.6267 16.6667 39.36 17C39.1067 17.3333 38.68 17.5 38.08 17.5H32.44ZM54.26 14.42C54.5667 13.74 54.8 12.9333 54.96 12C55.1333 11.0533 55.22 9.9 55.22 8.54V7.28C55.22 7.13333 55.1733 7.01333 55.08 6.92C55 6.82667 54.88 6.78 54.72 6.78H43.86C43.5533 6.78 43.2867 6.73333 43.06 6.64C42.8467 6.53333 42.6667 6.4 42.52 6.24C42.3867 6.06667 42.28 5.88 42.2 5.68C42.1333 5.46667 42.1 5.26 42.1 5.06C42.1 4.86 42.1333 4.66 42.2 4.46C42.2667 4.24667 42.3733 4.06 42.52 3.9C42.6667 3.74 42.8467 3.60667 43.06 3.5C43.2867 3.39333 43.5533 3.34 43.86 3.34H56.08C56.6667 3.34 57.1533 3.4 57.54 3.52C57.94 3.62667 58.26 3.8 58.5 4.04C58.74 4.26667 58.9067 4.56 59 4.92C59.1067 5.28 59.16 5.70667 59.16 6.2V8.56C59.16 10.1867 59.0533 11.5867 58.84 12.76C58.6267 13.9333 58.3267 14.9 57.94 15.66C57.8067 15.9267 57.6267 16.1533 57.4 16.34C57.1867 16.5267 56.9467 16.6667 56.68 16.76C56.4133 16.8533 56.1333 16.9 55.84 16.9C55.5467 16.9 55.2667 16.84 55 16.72C54.56 16.5333 54.2733 16.22 54.14 15.78C54.0067 15.34 54.0467 14.8867 54.26 14.42ZM58.44 17.74C58.7467 17.74 59.0067 17.7933 59.22 17.9C59.4467 17.9933 59.6267 18.12 59.76 18.28C59.9067 18.44 60.0067 18.6267 60.06 18.84C60.1267 19.04 60.16 19.24 60.16 19.44C60.16 19.6533 60.1267 19.86 60.06 20.06C59.9933 20.26 59.8867 20.44 59.74 20.6C59.6067 20.76 59.4333 20.8867 59.22 20.98C59.0067 21.0733 58.7467 21.12 58.44 21.12H43.16C42.8533 21.12 42.5933 21.0733 42.38 20.98C42.1667 20.8867 41.9867 20.76 41.84 20.6C41.7067 20.44 41.6067 20.26 41.54 20.06C41.4733 19.86 41.44 19.6533 41.44 19.44C41.44 19.24 41.4667 19.04 41.52 18.84C41.5867 18.6267 41.6867 18.44 41.82 18.28C41.9667 18.12 42.1467 17.9933 42.36 17.9C42.5867 17.7933 42.8533 17.74 43.16 17.74H58.44ZM66.24 21.52C65.68 21.52 65.2133 21.4667 64.84 21.36C64.48 21.2533 64.1933 21.0867 63.98 20.86C63.7667 20.6333 63.6133 20.3333 63.52 19.96C63.44 19.5867 63.4 19.1333 63.4 18.6V17.32C63.4 16.64 63.6 16.16 64 15.88C64.4133 15.5867 64.9 15.44 65.46 15.44C66.02 15.44 66.4933 15.5867 66.88 15.88C67.2667 16.16 67.46 16.64 67.46 17.32V17.92C67.46 18.1467 67.4933 18.2867 67.56 18.34C67.6267 18.3933 67.7733 18.42 68 18.42H78.86C79.4733 18.42 79.9067 18.58 80.16 18.9C80.4133 19.2067 80.54 19.56 80.54 19.96C80.54 20.3733 80.4067 20.7333 80.14 21.04C79.8867 21.36 79.46 21.52 78.86 21.52H66.24ZM65.62 14.76C65.1 14.76 64.6333 14.66 64.22 14.46C63.8067 14.26 63.4533 14 63.16 13.68C62.88 13.36 62.66 12.9933 62.5 12.58C62.3533 12.1533 62.28 11.72 62.28 11.28V10.8C62.28 10.36 62.3533 9.94667 62.5 9.56C62.6467 9.17333 62.86 8.84 63.14 8.56C63.4333 8.26667 63.7867 8.04 64.2 7.88C64.6133 7.72 65.0867 7.64 65.62 7.64H69.38V6.78C69.38 6.60667 69.34 6.49333 69.26 6.44C69.1933 6.38667 69.0667 6.36 68.88 6.36H63.8C63.5467 6.36 63.3267 6.31333 63.14 6.22C62.9667 6.12667 62.82 6.00667 62.7 5.86C62.5933 5.71333 62.5133 5.55333 62.46 5.38C62.4067 5.20667 62.38 5.03333 62.38 4.86C62.38 4.67333 62.4067 4.49333 62.46 4.32C62.5133 4.13333 62.6 3.96667 62.72 3.82C62.84 3.67333 62.9867 3.55333 63.16 3.46C63.3467 3.36667 63.56 3.32 63.8 3.32H70.4C71.4667 3.32 72.2333 3.56667 72.7 4.06C73.1667 4.55333 73.4 5.19333 73.4 5.98V10.46H67.04C66.6267 10.46 66.42 10.6467 66.42 11.02V11.2C66.42 11.5467 66.6267 11.72 67.04 11.72H73.74C73.98 11.72 74.1867 11.7667 74.36 11.86C74.5467 11.9533 74.6933 12.0733 74.8 12.22C74.92 12.3667 75.0067 12.5333 75.06 12.72C75.1133 12.9067 75.14 13.0867 75.14 13.26C75.14 13.4333 75.1133 13.6133 75.06 13.8C75.0067 13.9733 74.9267 14.1333 74.82 14.28C74.7133 14.4133 74.5667 14.5267 74.38 14.62C74.2067 14.7133 73.9933 14.76 73.74 14.76H65.62ZM75.98 4.72C75.98 4.06667 76.18 3.57333 76.58 3.24C76.9933 2.90667 77.4667 2.74 78 2.74C78.2533 2.74 78.5 2.78667 78.74 2.88C78.9933 2.96 79.2133 3.08667 79.4 3.26C79.5867 3.42 79.7333 3.62667 79.84 3.88C79.96 4.12 80.02 4.4 80.02 4.72V16.88H75.98V4.72Z" fill="white"/>
</svg>
